<?xml version="1.0" encoding="UTF-8" standalone="yes"?>
<!DOCTYPE svg PUBLIC "-//W3C//DTD SVG 1.1//EN" "http://www.w3.org/Graphics/SVG/1.1/DTD/svg11.dtd">

<svg width="16" height="16" viewBox="0 0 16 16" xmlns="http://www.w3.org/2000/svg" xmlns:xlink="http://www.w3.org/1999/xlink" version="1.1" baseProfile="full">
    <g transform="scale(1,-1) translate(0,-16)">
        <path d="M 1.371916 2.407523 L 11.540340 12.760351 L 12.729394 11.592477 L 2.560970 1.239649 L 1.371916 2.407523 Z" transform="scale(1.000000,1.000000) translate(1.000000,1.000000)" fill="#21fe80" opacity="1.000000"></path>
        <path d="M 2.253011 3.524310 L 12.421435 13.877138 C 12.485935 13.942808 12.591458 13.943756 12.657128 13.879256 L 13.846181 12.711382 C 13.911851 12.646882 13.912799 12.541359 13.848299 12.475690 L 3.679875 2.122862 C 3.615375 2.057192 3.509852 2.056244 3.444182 2.120744 L 2.255129 3.288618 C 2.189459 3.353118 2.188511 3.458641 2.253011 3.524310 Z M 2.490822 3.290736 L 2.488704 3.526428 L 3.677757 2.358554 L 3.442065 2.356436 L 13.610489 12.709264 L 13.612607 12.473572 L 12.423553 13.641446 L 12.659246 13.643564 L 2.490822 3.290736 Z" transform="scale(1.000000,1.000000) translate(0.000000,0.000000)" fill="#21fe80" opacity="1.000000"></path>
        <path d="M 2.268148 12.767401 L 12.894546 2.420645 L 11.731852 1.226527 L 1.105454 11.573283 L 2.268148 12.767401 Z" transform="scale(1.000000,1.000000) translate(1.000000,1.000000)" fill="#21fe80" opacity="1.000000"></path>
        <path d="M 3.384418 13.886813 L 14.010816 3.540057 C 14.076765 3.475843 14.078172 3.370325 14.013958 3.304376 L 12.851264 2.110257 C 12.787050 2.044308 12.681532 2.042901 12.615582 2.107115 L 1.989184 12.453871 C 1.923235 12.518084 1.921828 12.623603 1.986042 12.689552 L 3.148736 13.883671 C 3.212950 13.949620 3.318468 13.951027 3.384418 13.886813 Z M 3.151879 13.647989 L 3.387560 13.651132 L 2.224866 12.457013 L 2.221723 12.692694 L 12.848121 2.345938 L 12.612440 2.342796 L 13.775134 3.536915 L 13.778277 3.301233 L 3.151879 13.647989 Z" transform="scale(1.000000,1.000000) translate(0.000000,0.000000)" fill="#21fe80" opacity="1.000000"></path>
    </g>
</svg>